<?xml version="1.0" encoding="UTF-8"?>
<svg xmlns="http://www.w3.org/2000/svg" xmlns:xlink="http://www.w3.org/1999/xlink" viewBox="0 0 48 48" width="48px" height="48px">
<g id="surface16350148">
<path style=" stroke:none;fill-rule:nonzero;fill:rgb(100%,100%,100%);fill-opacity:1;" d="M 24 4 C 12.972656 4 4 12.972656 4 24 C 4 35.027344 12.972656 44 24 44 C 35.027344 44 44 35.027344 44 24 C 44 12.972656 35.027344 4 24 4 Z M 24 7 C 28.140625 7 31.929688 8.476562 34.875 10.925781 C 32.121094 13.351562 28.976562 15.324219 25.582031 16.835938 C 23.8125 13.621094 21.890625 10.5 19.738281 7.558594 C 21.101562 7.207031 22.523438 7 24 7 Z M 16.785156 8.617188 C 18.996094 11.542969 20.949219 14.664062 22.746094 17.886719 C 19.050781 19.171875 15.136719 20 11 20 C 9.832031 20 8.679688 19.921875 7.539062 19.8125 C 8.796875 14.835938 12.230469 10.75 16.785156 8.617188 Z M 37 13.046875 C 39.460938 15.964844 40.953125 19.722656 40.992188 23.839844 C 38.832031 23.296875 36.574219 23 34.25 23 C 32.421875 23 30.65625 23.234375 28.925781 23.574219 C 28.324219 22.179688 27.664062 20.820312 26.984375 19.46875 C 30.644531 17.8125 34.039062 15.675781 37 13.046875 Z M 24.175781 20.570312 C 24.8125 21.820312 25.449219 23.0625 26.015625 24.351562 C 19.953125 26.25 14.75 30.097656 11.257812 35.238281 C 8.617188 32.242188 7 28.320312 7 24 C 7 23.585938 7.035156 23.179688 7.0625 22.773438 C 8.359375 22.90625 9.664062 23 11 23 C 15.644531 23 20.046875 22.0625 24.179688 20.570312 Z M 34.25 26 C 36.5 26 38.667969 26.320312 40.738281 26.882812 C 39.953125 31.488281 37.335938 35.457031 33.644531 38.003906 C 32.753906 34.066406 31.511719 30.269531 30.085938 26.5625 C 31.460938 26.324219 32.808594 26 34.25 26 Z M 27.09375 27.125 C 28.664062 31.125 30.007812 35.242188 30.90625 39.53125 C 28.796875 40.46875 26.460938 41 24 41 C 20.011719 41 16.355469 39.621094 13.460938 37.332031 C 16.609375 32.476562 21.429688 28.839844 27.09375 27.125 Z M 27.09375 27.125 "/>
</g>
</svg>
